<?xml version="1.0" standalone="no"?>
<!DOCTYPE svg PUBLIC "-//W3C//DTD SVG 20010904//EN"
 "http://www.w3.org/TR/2001/REC-SVG-20010904/DTD/svg10.dtd">
<svg version="1.0" xmlns="http://www.w3.org/2000/svg"
 width="700.000000pt" height="700.000000pt" viewBox="0 0 700.000000 700.000000"
 preserveAspectRatio="xMidYMid meet">
<metadata>
Created by potrace 1.11, written by Peter Selinger 2001-2013
</metadata>
<g transform="translate(0.000000,700.000000) scale(0.100000,-0.100000)"
fill="#000000" stroke="none">
<path d="M3325 6929 c-368 -19 -725 -93 -1055 -221 -1078 -417 -1877 -1346
-2124 -2468 -60 -275 -70 -378 -70 -740 0 -362 10 -465 70 -740 265 -1204
1174 -2189 2349 -2545 527 -160 1110 -192 1645 -90 756 143 1458 548 1959
1130 582 676 878 1540 830 2423 -26 490 -138 916 -355 1352 -256 515 -635 955
-1109 1287 -507 355 -1145 579 -1730 608 -66 3 -151 7 -190 9 -38 2 -137 0
-220 -5z"/>
</g>
</svg>
