<?xml version="1.0" standalone="no"?>
<!DOCTYPE svg PUBLIC "-//W3C//DTD SVG 20010904//EN"
 "http://www.w3.org/TR/2001/REC-SVG-20010904/DTD/svg10.dtd">
<svg version="1.0" xmlns="http://www.w3.org/2000/svg"
 width="700.000000pt" height="700.000000pt" viewBox="0 0 700.000000 700.000000"
 preserveAspectRatio="xMidYMid meet">
<metadata>
Created by potrace 1.11, written by Peter Selinger 2001-2013
</metadata>
<g transform="translate(0.000000,700.000000) scale(0.100000,-0.100000)"
fill="#000000" stroke="none">
<path d="M3334 6929 c-1065 -51 -2035 -587 -2649 -1464 -315 -450 -510 -952
-592 -1525 -25 -179 -25 -701 0 -880 109 -759 421 -1408 937 -1943 798 -828
1939 -1197 3082 -997 482 85 984 296 1381 582 296 214 591 509 805 805 202
281 387 657 487 988 104 346 146 636 146 1005 0 369 -42 659 -146 1005 -100
331 -285 707 -487 988 -214 296 -509 591 -805 805 -510 367 -1176 602 -1778
627 -66 3 -145 7 -175 9 -30 1 -123 -1 -206 -5z"/>
</g>
</svg>
